<svg xmlns="http://www.w3.org/2000/svg" width="1200" height="630" viewBox="0 0 1200 630" role="img" aria-labelledby="title desc">
  <title id="title">Boolean Logic social preview</title>
  <desc id="desc">Boolean Logic digital marketing and growth strategy preview image.</desc>
  <defs>
    <linearGradient id="bg" x1="0" y1="0" x2="1" y2="1">
      <stop offset="0" stop-color="#f8faf7"/>
      <stop offset="0.52" stop-color="#eef4ef"/>
      <stop offset="1" stop-color="#dce8e1"/>
    </linearGradient>
    <linearGradient id="accent" x1="0" y1="0" x2="1" y2="0">
      <stop offset="0" stop-color="#17463f"/>
      <stop offset="1" stop-color="#b8893f"/>
    </linearGradient>
  </defs>
  <rect width="1200" height="630" fill="url(#bg)"/>
  <path d="M0 500 C 180 438, 308 570, 514 500 S 884 390, 1200 472 L 1200 630 L 0 630 Z" fill="#17463f" opacity="0.12"/>
  <path d="M810 96 H1088 V374 H810 Z" rx="28" fill="#ffffff" opacity="0.8"/>
  <path d="M850 159 H1046" stroke="#17463f" stroke-width="18" stroke-linecap="round" opacity="0.85"/>
  <path d="M850 226 H1008" stroke="#b8893f" stroke-width="18" stroke-linecap="round" opacity="0.85"/>
  <path d="M850 293 H1060" stroke="#17463f" stroke-width="18" stroke-linecap="round" opacity="0.22"/>
  <circle cx="950" cy="486" r="86" fill="#b8893f" opacity="0.16"/>
  <circle cx="950" cy="486" r="48" fill="#17463f" opacity="0.9"/>
  <text x="96" y="178" fill="#17463f" font-family="Poppins, Arial, sans-serif" font-size="38" font-weight="700">Boolean Logic</text>
  <text x="96" y="294" fill="#15332f" font-family="Poppins, Arial, sans-serif" font-size="72" font-weight="800">Digital marketing</text>
  <text x="96" y="378" fill="#15332f" font-family="Poppins, Arial, sans-serif" font-size="72" font-weight="800">that earns clarity.</text>
  <rect x="96" y="438" width="360" height="8" rx="4" fill="url(#accent)"/>
  <text x="96" y="508" fill="#48615b" font-family="Open Sans, Arial, sans-serif" font-size="30" font-weight="600">Google Ads. SEO. Analytics. Growth strategy.</text>
</svg>
